<svg width="18" height="18" viewBox="0 0 18 18" fill="none" xmlns="http://www.w3.org/2000/svg">
<path fill-rule="evenodd" clip-rule="evenodd" d="M8.88794 0C3.97927 0 0 3.97927 0 8.88794C0 13.7966 3.97927 17.7759 8.88794 17.7759H13.3319C14.7123 17.7759 15.4025 17.7759 15.947 17.5504C16.6729 17.2497 17.2497 16.6729 17.5504 15.947C17.7759 15.4025 17.7759 14.7123 17.7759 13.3319V8.88794C17.7759 3.97927 13.7966 0 8.88794 0ZM4.93774 7.90039C4.93774 7.35498 5.37988 6.91284 5.92529 6.91284H11.8506C12.396 6.91284 12.8381 7.35498 12.8381 7.90039C12.8381 8.4458 12.396 8.88794 11.8506 8.88794H5.92529C5.37988 8.88794 4.93774 8.4458 4.93774 7.90039ZM7.90039 11.8506C7.90039 11.3052 8.34253 10.863 8.88794 10.863H11.8506C12.396 10.863 12.8381 11.3052 12.8381 11.8506C12.8381 12.396 12.396 12.8381 11.8506 12.8381H8.88794C8.34253 12.8381 7.90039 12.396 7.90039 11.8506Z" fill="black"/>
</svg>
