<svg width="23" height="27" viewBox="0 0 23 27" fill="none" xmlns="http://www.w3.org/2000/svg">
<path d="M11.5829 15.7847H2.20261C2.18625 15.7847 2.17808 15.7847 2.17534 15.7795C2.17261 15.7743 2.17727 15.7676 2.1866 15.7541L11.5669 2.24655L11.5669 2.24655C11.5814 2.22559 11.5887 2.21511 11.5955 2.21725C11.6024 2.21939 11.6024 2.23215 11.6024 2.25767V11.2355C11.6024 11.2447 11.6024 11.2493 11.6052 11.2521C11.6081 11.255 11.6127 11.255 11.6219 11.255H21.0021C21.0185 11.255 21.0267 11.255 21.0294 11.2602C21.0321 11.2654 21.0275 11.2722 21.0181 11.2856L11.6379 24.7932C11.6233 24.8141 11.616 24.8246 11.6092 24.8225C11.6024 24.8203 11.6024 24.8076 11.6024 24.7821V15.8042C11.6024 15.795 11.6024 15.7905 11.5995 15.7876C11.5967 15.7847 11.5921 15.7847 11.5829 15.7847Z" stroke="#06335B" stroke-width="2.92347"/>
</svg>
