<svg width="28" height="25" viewBox="0 0 28 25" fill="none" xmlns="http://www.w3.org/2000/svg">
<path d="M4.394 14.0507L13.2408 22.427C13.5455 22.7155 13.6979 22.8598 13.8775 22.8953C13.9584 22.9113 14.0416 22.9113 14.1225 22.8953C14.3022 22.8598 14.4546 22.7155 14.7593 22.427L23.6061 14.0507C26.0952 11.694 26.3974 7.81574 24.304 5.09617L23.9103 4.58481C21.406 1.33143 16.379 1.87704 14.6193 5.59324C14.3707 6.11818 13.6294 6.11818 13.3808 5.59324C11.621 1.87704 6.5941 1.33143 4.08972 4.58481L3.69609 5.09617C1.60263 7.81574 1.9049 11.694 4.394 14.0507Z" stroke="#06335B" stroke-width="2.92347"/>
</svg>
